<svg width="20" height="20" viewBox="0 0 20 20" fill="none" xmlns="http://www.w3.org/2000/svg">
<g id="distance">
<mask id="mask0_240_11628" style="mask-type:alpha" maskUnits="userSpaceOnUse" x="0" y="0" width="20" height="20">
<rect id="Bounding box" width="20" height="20" fill="#D9D9D9"/>
</mask>
<g mask="url(#mask0_240_11628)">
<path id="distance_2" d="M10 18.3337C8.52778 18.3337 7.32639 18.101 6.39583 17.6357C5.46528 17.1705 5 16.5698 5 15.8337C5 15.3475 5.20139 14.9239 5.60417 14.5628C6.00694 14.2017 6.5625 13.917 7.27083 13.7087L7.75 15.292C7.51389 15.3614 7.29861 15.4482 7.10417 15.5524C6.90972 15.6566 6.77778 15.7503 6.70833 15.8337C6.88889 16.0559 7.30556 16.2503 7.95833 16.417C8.61111 16.5837 9.29167 16.667 10 16.667C10.7083 16.667 11.3924 16.5837 12.0521 16.417C12.7118 16.2503 13.1319 16.0559 13.3125 15.8337C13.2431 15.7503 13.1111 15.6566 12.9167 15.5524C12.7222 15.4482 12.5069 15.3614 12.2708 15.292L12.75 13.7087C13.4583 13.917 14.0104 14.2017 14.4062 14.5628C14.8021 14.9239 15 15.3475 15 15.8337C15 16.5698 14.5347 17.1705 13.6042 17.6357C12.6736 18.101 11.4722 18.3337 10 18.3337ZM10 12.7712C10.25 12.3128 10.5139 11.8927 10.7917 11.5107C11.0694 11.1288 11.3403 10.7642 11.6042 10.417C12.1181 9.75033 12.5278 9.14963 12.8333 8.61491C13.1389 8.08019 13.2917 7.41699 13.2917 6.62533C13.2917 5.70866 12.9722 4.93088 12.3333 4.29199C11.6944 3.6531 10.9167 3.33366 10 3.33366C9.08333 3.33366 8.30556 3.6531 7.66667 4.29199C7.02778 4.93088 6.70833 5.70866 6.70833 6.62533C6.70833 7.41699 6.86111 8.08019 7.16667 8.61491C7.47222 9.14963 7.88194 9.75033 8.39583 10.417C8.65972 10.7642 8.93056 11.1288 9.20833 11.5107C9.48611 11.8927 9.75 12.3128 10 12.7712ZM10 15.8337C9.84722 15.8337 9.70833 15.7885 9.58333 15.6982C9.45833 15.608 9.36806 15.4864 9.3125 15.3337C8.99306 14.3475 8.59028 13.5212 8.10417 12.8545C7.61806 12.1878 7.14583 11.5489 6.6875 10.9378C6.24306 10.3267 5.85764 9.69477 5.53125 9.04199C5.20486 8.38921 5.04167 7.58366 5.04167 6.62533C5.04167 5.23644 5.52083 4.06283 6.47917 3.10449C7.4375 2.14616 8.61111 1.66699 10 1.66699C11.3889 1.66699 12.5625 2.14616 13.5208 3.10449C14.4792 4.06283 14.9583 5.23644 14.9583 6.62533C14.9583 7.58366 14.7986 8.38921 14.4792 9.04199C14.1597 9.69477 13.7708 10.3267 13.3125 10.9378C12.8681 11.5489 12.3993 12.1878 11.9062 12.8545C11.4132 13.5212 11.0069 14.3475 10.6875 15.3337C10.6319 15.4864 10.5417 15.608 10.4167 15.6982C10.2917 15.7885 10.1528 15.8337 10 15.8337ZM10 8.39616C10.4861 8.39616 10.9028 8.22255 11.25 7.87533C11.5972 7.5281 11.7708 7.11144 11.7708 6.62533C11.7708 6.13921 11.5972 5.72255 11.25 5.37533C10.9028 5.0281 10.4861 4.85449 10 4.85449C9.51389 4.85449 9.09722 5.0281 8.75 5.37533C8.40278 5.72255 8.22917 6.13921 8.22917 6.62533C8.22917 7.11144 8.40278 7.5281 8.75 7.87533C9.09722 8.22255 9.51389 8.39616 10 8.39616Z" fill="#1C1B1F"/>
</g>
</g>
</svg>
