<svg width="80" height="80" viewBox="0 0 80 80" fill="none" xmlns="http://www.w3.org/2000/svg">
<g id="partner_exchange">
<mask id="mask0_25_4449" style="mask-type:alpha" maskUnits="userSpaceOnUse" x="0" y="0" width="80" height="80">
<rect id="Bounding box" width="80" height="80" fill="#0E5493"/>
</mask>
<g mask="url(#mask0_25_4449)">
<path id="partner_exchange_2" d="M40.0007 30.0003L28.334 18.3337L40.0007 6.66699L51.6673 18.3337L40.0007 30.0003ZM3.33398 66.667V53.3337C3.33398 51.4448 3.98676 49.8614 5.29232 48.5837C6.59787 47.3059 8.16732 46.667 10.0007 46.667H20.9173C22.0284 46.667 23.084 46.9448 24.084 47.5003C25.084 48.0559 25.8895 48.8059 26.5007 49.7503C28.1118 51.917 30.0979 53.6114 32.459 54.8337C34.8201 56.0559 37.334 56.667 40.0007 56.667C42.7229 56.667 45.2645 56.0559 47.6257 54.8337C49.9868 53.6114 51.9451 51.917 53.5007 49.7503C54.2229 48.8059 55.0701 48.0559 56.0423 47.5003C57.0145 46.9448 58.0284 46.667 59.084 46.667H70.0007C71.8895 46.667 73.4729 47.3059 74.7507 48.5837C76.0284 49.8614 76.6673 51.4448 76.6673 53.3337V66.667H53.334V59.0837C51.3895 60.4725 49.2923 61.5281 47.0423 62.2503C44.7923 62.9725 42.4451 63.3337 40.0007 63.3337C37.6118 63.3337 35.2784 62.9587 33.0007 62.2087C30.7229 61.4587 28.6118 60.3892 26.6673 59.0003V66.667H3.33398ZM13.334 43.3337C10.5562 43.3337 8.1951 42.3614 6.25065 40.417C4.30621 38.4725 3.33398 36.1114 3.33398 33.3337C3.33398 30.5003 4.30621 28.1253 6.25065 26.2087C8.1951 24.292 10.5562 23.3337 13.334 23.3337C16.1673 23.3337 18.5423 24.292 20.459 26.2087C22.3757 28.1253 23.334 30.5003 23.334 33.3337C23.334 36.1114 22.3757 38.4725 20.459 40.417C18.5423 42.3614 16.1673 43.3337 13.334 43.3337ZM66.6673 43.3337C63.8895 43.3337 61.5284 42.3614 59.584 40.417C57.6395 38.4725 56.6673 36.1114 56.6673 33.3337C56.6673 30.5003 57.6395 28.1253 59.584 26.2087C61.5284 24.292 63.8895 23.3337 66.6673 23.3337C69.5007 23.3337 71.8757 24.292 73.7923 26.2087C75.709 28.1253 76.6673 30.5003 76.6673 33.3337C76.6673 36.1114 75.709 38.4725 73.7923 40.417C71.8757 42.3614 69.5007 43.3337 66.6673 43.3337Z" fill="#0E5493"/>
</g>
</g>
</svg>
