<svg width="80" height="82" viewBox="0 0 80 82" fill="none" xmlns="http://www.w3.org/2000/svg">
<g id="rocket_launch">
<mask id="mask0_25_4452" style="mask-type:alpha" maskUnits="userSpaceOnUse" x="0" y="0" width="80" height="82">
<rect id="Bounding box" width="80" height="81.2121" fill="#0E5493"/>
</mask>
<g mask="url(#mask0_25_4452)">
<path id="rocket_launch_2" d="M3.82487 37.0278L19.734 21.1187C20.6178 20.2348 21.6595 19.6035 22.859 19.2247C24.0585 18.8459 25.2895 18.7828 26.5522 19.0353L31.4764 20.077C28.0673 24.1174 25.3842 27.779 23.4272 31.0619C21.4701 34.3447 19.5761 38.322 17.7453 42.9937L3.82487 37.0278ZM23.2378 45.6452C24.6898 41.0997 26.6626 36.8068 29.1563 32.7664C31.65 28.726 34.6645 24.9381 38.1999 21.4028C43.7554 15.8472 50.1001 11.6963 57.234 8.95011C64.3678 6.20389 71.0282 5.3674 77.2151 6.44064C78.2883 12.6275 77.4676 19.2879 74.7529 26.4217C72.0383 33.5555 67.9032 39.9002 62.3476 45.4558C58.8754 48.928 55.0875 51.9425 50.984 54.4994C46.8804 57.0562 42.556 59.0606 38.0105 60.5126L23.2378 45.6452ZM49.3741 34.2816C50.8262 35.7336 52.6096 36.4596 54.7245 36.4596C56.8394 36.4596 58.6229 35.7336 60.0749 34.2816C61.5269 32.8295 62.2529 31.0461 62.2529 28.9312C62.2529 26.8163 61.5269 25.0328 60.0749 23.5808C58.6229 22.1288 56.8394 21.4028 54.7245 21.4028C52.6096 21.4028 50.8262 22.1288 49.3741 23.5808C47.9221 25.0328 47.1961 26.8163 47.1961 28.9312C47.1961 31.0461 47.9221 32.8295 49.3741 34.2816ZM46.7226 79.8308L40.662 65.9104C45.3337 64.0795 49.3268 62.1856 52.6412 60.2285C55.9556 58.2715 59.633 55.5884 63.6734 52.1793L64.6204 57.1035C64.8729 58.3662 64.8097 59.613 64.431 60.8441C64.0522 62.0751 63.4209 63.1326 62.537 64.0164L46.7226 79.8308ZM9.88548 57.7664C12.0951 55.5568 14.7782 54.4362 17.9347 54.4047C21.0913 54.3731 23.7744 55.4621 25.984 57.6717C28.1936 59.8813 29.2984 62.5644 29.2984 65.721C29.2984 68.8775 28.1936 71.5606 25.984 73.7702C24.4057 75.3485 21.77 76.7058 18.0768 77.8422C14.3836 78.9785 9.28573 79.9886 2.7832 80.8725C3.66704 74.3699 4.67714 69.2879 5.81351 65.6263C6.94987 61.9646 8.3072 59.3447 9.88548 57.7664Z" fill="#0E5493"/>
</g>
</g>
</svg>
