<svg width="80" height="80" viewBox="0 0 80 80" fill="none" xmlns="http://www.w3.org/2000/svg">
<g id="savings">
<mask id="mask0_25_4446" style="mask-type:alpha" maskUnits="userSpaceOnUse" x="0" y="0" width="80" height="80">
<rect id="Bounding box" width="80" height="80" fill="#0E5493"/>
</mask>
<g mask="url(#mask0_25_4446)">
<path id="savings_2" d="M53.3327 36.667C54.2771 36.667 55.0688 36.3476 55.7077 35.7087C56.3466 35.0698 56.666 34.2781 56.666 33.3337C56.666 32.3892 56.3466 31.5975 55.7077 30.9587C55.0688 30.3198 54.2771 30.0003 53.3327 30.0003C52.3882 30.0003 51.5966 30.3198 50.9577 30.9587C50.3188 31.5975 49.9993 32.3892 49.9993 33.3337C49.9993 34.2781 50.3188 35.0698 50.9577 35.7087C51.5966 36.3476 52.3882 36.667 53.3327 36.667ZM26.666 30.0003H43.3327V23.3337H26.666V30.0003ZM14.9993 70.0003C13.1105 63.667 11.2493 57.3475 9.41602 51.042C7.58268 44.7364 6.66602 38.2781 6.66602 31.667C6.66602 26.5559 8.44379 22.2225 11.9993 18.667C15.5549 15.1114 19.8882 13.3337 24.9993 13.3337H41.666C43.2771 11.2225 45.2355 9.58366 47.541 8.41699C49.8466 7.25033 52.3327 6.66699 54.9993 6.66699C56.3882 6.66699 57.5688 7.1531 58.541 8.12533C59.5132 9.09755 59.9993 10.2781 59.9993 11.667C59.9993 11.9448 59.8605 12.5837 59.5827 13.5837C59.3605 14.1948 59.1521 14.8198 58.9577 15.4587C58.7632 16.0975 58.6105 16.7503 58.4993 17.417L66.0827 25.0003H73.3327V48.2503L63.916 51.3337L58.3327 70.0003H39.9993V63.3337H33.3327V70.0003H14.9993Z" fill="#0E5493"/>
</g>
</g>
</svg>
